<?xml version="1.0" encoding="UTF-8"?>
<svg
    viewBox="0 0 480 120"
    fill="none"
    xmlns="http://www.w3.org/2000/svg">
    
    <!-- Octopus/Fingerprint Icon - Orange -->
    <g transform="translate(60, 60) scale(0.55)">
        <path
            d="M 0,0 C 7.375,0 13.354,-5.979 13.354,-13.354 H -13.354 C -13.354,-5.979 -7.375,0 0,0 m 138.008,-119.102 c -0.243,-0.555 -0.581,-1.08 -1.035,-1.534 -19.611,-19.612 -45.684,-30.411 -73.417,-30.411 -27.734,0 -53.807,10.799 -73.417,30.411 -19.611,19.609 -30.411,45.682 -30.411,73.416 0,2.763 2.241,5.004 5.004,5.004 2.764,0 5.005,-2.241 5.005,-5.004 0,-16.878 4.432,-33.072 12.736,-47.262 0.085,0 0.168,0.006 0.253,0.006 4.005,-6.824 8.904,-13.184 14.646,-18.927 17.679,-17.678 41.183,-27.414 66.184,-27.414 25,0 48.504,9.736 66.182,27.414 4.886,4.886 4.886,12.808 0,17.693 -4.886,4.885 -12.806,4.885 -17.692,0 -12.953,-12.953 -30.174,-20.085 -48.49,-20.085 -18.318,0 -35.539,7.132 -48.491,20.085 -1.547,1.547 -2.995,3.163 -4.369,4.829 -0.171,0.206 -0.337,0.414 -0.505,0.622 -0.461,0.571 -0.912,1.148 -1.353,1.731 -0.24,0.317 -0.48,0.634 -0.715,0.955 -0.11,0.152 -0.228,0.299 -0.338,0.452 0.005,0.003 0.009,0.006 0.013,0.009 -8.306,11.558 -12.803,25.376 -12.803,39.892 0,2.763 2.241,5.004 5.005,5.004 2.764,0 5.004,-2.241 5.004,-5.004 0,-15.64 6.091,-30.344 17.15,-41.403 11.059,-11.058 25.762,-17.149 41.402,-17.149 15.639,0 30.342,6.091 41.401,17.149 0.34,0.34 0.725,0.599 1.125,0.821 3.943,4.912 3.64,12.108 -0.917,16.665 -4.885,4.884 -12.806,4.884 -17.692,0 -6.389,-6.389 -14.883,-9.907 -23.917,-9.907 -9.035,0 -17.529,3.518 -23.918,9.907 -6.389,6.387 -9.907,14.882 -9.907,23.917 0,3.467 0.523,6.854 1.523,10.074 h 90.22 v 0.015 c 11.901,0.146 23.757,4.749 32.837,13.829 18.457,18.457 18.456,48.382 -0.001,66.838 -24.242,24.241 -56.472,37.592 -90.754,37.592 -34.283,0 -66.514,-13.351 -90.757,-37.593 -24.241,-24.242 -37.592,-56.473 -37.592,-90.755 0,-0.013 0.001,-0.025 0.001,-0.038 0.01,-34.268 13.359,-66.485 37.592,-90.717 24.24,-24.242 56.472,-37.593 90.756,-37.593 34.283,0 66.514,13.351 90.755,37.593 4.886,4.886 4.886,12.806 0,17.692 -4.448,4.447 -11.404,4.833 -16.303,1.181"
            fill="#ea580c"
            fill-rule="nonzero"
        />
    </g>

    <!-- "etals" Text - Black -->
    <g transform="translate(120, 82) scale(0.36)">
        <path
            d="m 77.741239,-136.50145 c -9.884766,0 -19.02832,1.77832 -27.433594,5.33203 -8.408203,3.54786 -15.688476,8.44336 -21.84375,14.6836 -6.149414,6.24316 -10.916015,13.61133 -14.296875,22.101561 -3.375,8.493164 -5.0624997,17.765625 -5.0624997,27.820312 0,10.227539 1.8632817,19.587891 5.5898437,28.078125 3.726563,8.493164 8.923828,15.817383 15.597656,21.972656 6.670899,6.158203 14.557617,10.9687504 23.660157,14.4375004 9.099609,3.4599609 18.9375,5.1914062 29.507812,5.1914062 11.4375,0 21.750001,-1.5175781 30.937501,-4.546875 9.1875,-3.0292969 17.94141,-8.2734375 26.26172,-15.7265626 l -20.80078,-28.089844 c -3.64161,3.298828 -8.45508,6.246094 -14.4375,8.847657 -5.976566,2.601562 -12.864261,3.902343 -20.66016,3.902343 -3.814453,0 -7.541015,-0.474609 -11.179687,-1.429687 -3.641602,-0.952149 -6.890625,-2.466797 -9.75,-4.546875 -2.859375,-2.085938 -5.244141,-4.59961 -7.148438,-7.546875 -1.907226,-2.944336 -3.123047,-6.413086 -3.644531,-10.40625 H 140.4014 c 0.34277,-1.552735 0.72949,-3.931641 1.16015,-7.136719 0.43652,-3.210937 0.65625,-6.808594 0.65625,-10.792969 0,-9.014648 -1.55859,-17.291015 -4.67578,-24.832031 -3.11719,-7.538083 -7.54102,-14.080083 -13.26562,-19.628903 -5.71875,-5.5459 -12.52442,-9.87891 -20.41407,-12.9961 -7.883786,-3.12304 -16.590818,-4.6875 -26.121091,-4.6875 z m -0.257812,34.32422 c 3.45996,0 6.577148,0.52149 9.351562,1.5586 2.771484,1.040035 5.15625,2.469722 7.148438,4.289058 1.998046,1.822266 3.64746,4.03125 4.945312,6.632813 1.303711,2.595703 2.041991,5.455078 2.214841,8.578125 H 52.522489 c 0.515625,-3.123047 1.464844,-5.982422 2.847656,-8.578125 1.388672,-2.601563 3.123047,-4.810547 5.203125,-6.632813 2.085938,-1.819336 4.558594,-3.249023 7.417969,-4.289058 2.859375,-1.03711 6.023438,-1.5586 9.492188,-1.5586 z M 201.50589,-0.00144688 V -103.2202 l -3.12891,3.11719 h 31.20703 v -33.28125 h -31.72265 l 3.11718,3.11719 v -42.375 h -41.85937 v 42.375 l 3.11719,-3.11719 h -28.33594 v 33.28125 h 27.82031 l -3.11719,-3.11719 V -0.00144688 Z M 290.68265,-34.056134 c 3.98437,0 7.75195,-0.738282 11.30859,-2.214844 3.55371,-1.476563 6.63281,-3.644531 9.23437,-6.503906 2.60157,-2.859375 4.63477,-6.28125 6.10547,-10.265625 1.47657,-3.984375 2.21485,-8.405274 2.21485,-13.265625 0,-4.851563 -0.73828,-9.269532 -2.21485,-13.253907 -1.4707,-3.990234 -3.5039,-7.374023 -6.10547,-10.148437 -2.60156,-2.771485 -5.63671,-4.936524 -9.10546,-6.492188 -3.46875,-1.561523 -7.28321,-2.34375 -11.4375,-2.34375 -3.98438,0 -7.71094,0.782227 -11.17969,2.34375 -3.46875,1.555664 -6.50391,3.720703 -9.10547,6.492188 -2.5957,2.774414 -4.62891,6.158203 -6.10547,10.148437 -1.47656,3.984375 -2.21484,8.402344 -2.21484,13.253907 0,4.860351 0.73828,9.28125 2.21484,13.265625 1.47656,3.984375 3.50977,7.40625 6.10547,10.265625 2.60156,2.859375 5.63672,5.027343 9.10547,6.503906 3.46875,1.476562 7.19531,2.214844 11.17969,2.214844 z m 31.98046,15.339843 c -1.56445,3.290039 -3.77343,6.278321 -6.63281,8.9648441 -2.85937,2.6894531 -6.11133,4.9423828 -9.75,6.7617188 -3.6416,1.8222656 -7.54394,3.29296872 -11.70703,4.4179687 -4.15723,1.125 -8.5752,1.6875 -13.25391,1.6875 -8.49316,0 -16.46484,-1.6464844 -23.91796,-4.9335937 -7.45313,-3.2958985 -13.99805,-8.0185547 -19.62891,-14.1679689 -5.63379,-6.155273 -10.09863,-13.523437 -13.39453,-22.101562 -3.29004,-8.583985 -4.9336,-18.164063 -4.9336,-28.734375 0,-10.570313 1.64356,-20.144532 4.9336,-28.722657 3.2959,-8.583984 7.71679,-15.952144 13.26562,-22.101564 5.5459,-6.15527 12.00293,-10.83398 19.3711,-14.03906 7.36523,-3.21094 15.12011,-4.81641 23.26172,-4.81641 4.16308,0 8.27929,0.47754 12.35156,1.42969 4.07812,0.95508 7.80469,2.29688 11.17969,4.03125 3.38085,1.73438 6.375,3.81738 8.97656,6.24609 2.60156,2.42286 4.76953,5.02149 6.5039,7.79297 l -1.57031,1.04297 v -17.42578 h 42.64453 V -0.00144688 H 321.10452 V -19.501447 Z m 50.17676,18.71484412 h 42.90235 V -194.48582 H 372.83987 Z M 483.07522,3.1157406 c 8.14746,0 15.55664,-1.0839844 22.23047,-3.24609373 6.67969,-2.16210937 12.35742,-5.15039067 17.03906,-8.96484377 4.67872,-3.8203121 8.31446,-8.2851561 10.91016,-13.3945311 2.60156,-5.115235 3.90234,-10.535156 3.90234,-16.253906 0,-5.373047 -0.82617,-10.010743 -2.47265,-13.910157 -1.64063,-3.896484 -4.1543,-7.447265 -7.53516,-10.652343 -3.375,-3.210938 -7.75195,-6.202149 -13.125,-8.976563 -5.37597,-2.771484 -11.7041,-5.460937 -18.98437,-8.0625 -4.68164,-1.734375 -8.71289,-3.205078 -12.09375,-4.417969 -3.375,-1.209961 -6.14942,-2.334961 -8.32032,-3.375 -2.16503,-1.045898 -3.72363,-2.132812 -4.67578,-3.257812 -0.95507,-1.125 -1.42968,-2.466797 -1.42968,-4.03125 0,-1.552735 0.3457,-2.894531 1.04296,-4.019531 0.69434,-1.130861 1.69043,-2.041991 2.98829,-2.730471 1.29492,-0.69433 2.76855,-1.21289 4.41796,-1.55859 1.64649,-0.35156 3.33985,-0.52735 5.07422,-0.52735 5.71875,0 10.61133,1.30079 14.6836,3.90235 4.07812,2.601561 7.32715,5.894529 9.75,9.878904 l 27.30468,-19.757814 c -2.08007,-3.99023 -4.85156,-7.63183 -8.32031,-10.92187 -3.46875,-3.2959 -7.37109,-6.07032 -11.70703,-8.32032 -4.33008,-2.25586 -9.05273,-3.99023 -14.16797,-5.20312 -5.10937,-1.20996 -10.43847,-1.81641 -15.98437,-1.81641 -7.97754,0 -15.25782,0.95508 -21.84375,2.85938 -6.58594,1.90722 -12.26367,4.68164 -17.02735,8.32031 -4.7666,3.6416 -8.53711,7.93066 -11.30859,12.86719 -2.77441,4.93945 -4.16016,10.4414 -4.16016,16.511717 0,5.548828 0.95215,10.447265 2.85938,14.695312 1.9043,4.242188 4.63476,8.012696 8.1914,11.308594 3.55372,3.290039 7.88672,6.234375 12.9961,8.835938 5.11523,2.601562 10.96875,4.942382 17.55469,7.019531 4.67871,1.734375 8.70703,3.210937 12.08203,4.429687 3.38086,1.212891 6.19922,2.422852 8.44922,3.632813 2.25586,1.21289 3.94921,2.425781 5.07421,3.644531 1.125,1.212891 1.6875,2.771484 1.6875,4.675781 0,1.382813 -0.39257,2.598633 -1.17187,3.644532 -0.77344,1.040039 -1.81348,1.907226 -3.11719,2.601562 -1.29785,0.688477 -2.85644,1.250977 -4.67578,1.6875 -1.82226,0.430664 -3.94629,0.644531 -6.375,0.644531 -6.75879,0 -12.86719,-1.77539 -18.32812,-5.332031 -5.46094,-3.553711 -9.83789,-8.015625 -13.125,-13.382812 l -27.04688,20.800781 c 2.60156,5.024414 5.93555,9.398437 10.00781,13.125 4.07813,3.726562 8.62793,6.8496092 13.65235,9.3632811 5.03027,2.5078125 10.49121,4.4121094 16.38281,5.7070313 5.88867,1.3037109 12.12891,1.9570312 18.71484,1.9570312 z"
            fill="#000000"
            fill-rule="nonzero"
        />
    </g>
</svg>
